<?xml version="1.0" encoding="UTF-8" standalone="no"?>
<!-- Created with Inkscape (http://www.inkscape.org/) -->

<svg
   xmlns:dc="http://purl.org/dc/elements/1.1/"
   xmlns:cc="http://creativecommons.org/ns#"
   xmlns:rdf="http://www.w3.org/1999/02/22-rdf-syntax-ns#"
   xmlns:svg="http://www.w3.org/2000/svg"
   xmlns="http://www.w3.org/2000/svg"
   xmlns:sodipodi="http://sodipodi.sourceforge.net/DTD/sodipodi-0.dtd"
   xmlns:inkscape="http://www.inkscape.org/namespaces/inkscape"
   version="1.1"
   id="svg3767"
   width="48"
   height="48"
   viewBox="0 0 48 48"
   sodipodi:docname="bast-white-sillhouette.svg"
   inkscape:version="0.92.4 (unknown)"
   inkscape:export-filename="/home/fabio/Downloads/bast-large.png"
   inkscape:export-xdpi="512"
   inkscape:export-ydpi="512">
  <metadata
     id="metadata3773">
    <rdf:RDF>
      <cc:Work
         rdf:about="">
        <dc:format>image/svg+xml</dc:format>
        <dc:type
           rdf:resource="http://purl.org/dc/dcmitype/StillImage" />
        <dc:title />
      </cc:Work>
    </rdf:RDF>
  </metadata>
  <defs
     id="defs3771" />
  <sodipodi:namedview
     pagecolor="#ffffff"
     bordercolor="#666666"
     borderopacity="1"
     objecttolerance="10"
     gridtolerance="10"
     guidetolerance="10"
     inkscape:pageopacity="0"
     inkscape:pageshadow="2"
     inkscape:window-width="2560"
     inkscape:window-height="1472"
     id="namedview3769"
     showgrid="false"
     inkscape:zoom="15.166667"
     inkscape:cx="-19.000003"
     inkscape:cy="20.043533"
     inkscape:window-x="0"
     inkscape:window-y="54"
     inkscape:window-maximized="1"
     inkscape:current-layer="svg3767" />
  <path
     style="fill:#ffffff;stroke:none;stroke-width:0.11110075px;stroke-linecap:butt;stroke-linejoin:miter;stroke-opacity:1"
     d="M 19.770814,9.2082866 C 18.486226,6.6805512 15.668423,3.9870613 15.751299,4.6500739 c 0.08288,0.6630126 1.69897,6.4643741 0.49726,6.6715651 -1.20171,0.207192 -6.2571822,3.522255 -5.925676,5.428416 0.331507,1.906162 -3.6465694,4.185268 -3.6051311,5.09691 0.041438,0.911642 0.5052613,1.114239 0.290068,1.906162 -0.2870821,1.056476 1.1188338,2.071914 1.5332167,2.071914 0.4143829,0 -0.3710586,2.70838 4.7654034,2.569174 6.116026,-0.165752 6.910673,0.777115 9.530807,9.820874 0.566088,1.953929 2.19623,6.920196 2.19623,6.920196 L 41.235849,27.979832 C 39.58106,27.24867 38.269377,26.44903 37.174897,23.91888 35.815348,20.775963 30.971343,12.752939 29.881756,12.564788 27.083138,12.081519 27.200998,7.0799139 25.986557,4.6915133 24.743408,2.2466536 23.251631,0.42336805 21.759852,5.0644575 20.029116,10.448972 19.770814,9.2082866 19.770814,9.2082866 Z"
     id="path3777"
     inkscape:connector-curvature="0"
     sodipodi:nodetypes="ccsssssssccssssc" />
</svg>
